<?xml version="1.0" encoding="UTF-8"?>
<svg width="1142px" height="1142px" viewBox="0 0 1142 1142" version="1.1" xmlns="http://www.w3.org/2000/svg" xmlns:xlink="http://www.w3.org/1999/xlink">
    <!-- Generator: Sketch 55.2 (78181) - https://sketchapp.com -->
    <title>cologo</title>
    <desc>Created with Sketch.</desc>
    <g id="Page-1" stroke="none" stroke-width="1" fill="none" fill-rule="evenodd">
        <g id="Group-4" transform="translate(570.635172, 570.635172) rotate(45.000000) translate(-570.635172, -570.635172) translate(167.135172, 167.135172)" fill="#EEEEEE">
            <rect id="Rectangle" x="0" y="384" width="807" height="39"></rect>
            <rect id="Rectangle-Copy" transform="translate(403.500000, 403.500000) rotate(90.000000) translate(-403.500000, -403.500000) " x="0" y="384" width="807" height="39"></rect>
        </g>
        <g id="Group-3" transform="translate(438.000000, 244.000000)">
            <polygon id="Path-2" fill="#FFFEFC" points="37.9912457 100.294727 191.958795 94.9129622 207.596125 118 293 108.089008 261.060755 57.7743463 231.414696 100.294727 212.780501 75.1040787 199.040542 89.9023531 139.446765 17 98.3712488 69.6743388 68.8833164 39.3699133 31 89.9023531"></polygon>
            <g id="mountain" transform="translate(52.000000, 0.000000)" fill="#EEEEEE" fill-rule="nonzero">
                <path d="M173.610096,124.712109 L94.8608699,3.96210937 C93.2503388,1.49320312 90.4777099,0 87.5,0 C84.5222997,0 81.7496707,1.49320312 80.1391396,3.96210937 L1.38991399,124.712109 C-0.341139802,127.366185 -0.463833934,130.740172 1.06999526,133.509609 C2.60453028,136.278347 5.55009745,138 8.75077911,138 L166.24923,138 C169.451152,138 172.396045,136.277695 173.930014,133.506914 C175.463835,130.738422 175.341131,127.365206 173.610096,124.712109 Z M87.5000048,24.5758594 L110.848603,60.375 L87.5000048,60.375 L70.0001768,77.625 L59.5932479,67.3666406 L87.5000048,24.5758594 Z" id="Shape"></path>
            </g>
            <g id="mountain" transform="translate(148.000000, 52.000000)" fill="#EEEEEE" fill-rule="nonzero">
                <path d="M106.944686,77.5433555 L58.4571097,2.51199959 C57.4654714,0.977876332 55.7583047,0.0500332248 53.9248682,0.0500332248 C52.0914317,0.0500332248 50.384265,0.977876332 49.3926267,2.51199959 L0.905050687,77.5433555 C-0.160796012,79.1925392 -0.236341403,81.2890594 0.708069909,83.0099257 C1.65291582,84.7303578 3.46656428,85.8001543 5.43729217,85.8001543 L102.412444,85.8001543 C104.383936,85.8001543 106.197169,84.7299526 107.141667,83.0082509 C108.086073,81.287972 108.010521,79.1919304 106.944686,77.5433555 Z M53.9248682,15.3209239 L68.3010978,37.5657112 L53.9248682,37.5657112 L43.1498513,48.2844763 L36.7420835,41.9101607 L53.9248682,15.3209239 Z" id="Shape"></path>
            </g>
            <g id="mountain-copy" transform="translate(111.000000, 70.000000)" fill="#EEEEEE" fill-rule="nonzero">
                <path d="M85.3169612,61.4523438 L46.6173418,1.95234375 C45.8258808,0.73578125 44.4633317,0 43,0 C41.536673,0 40.1741239,0.73578125 39.3826629,1.95234375 L0.683043445,61.4523438 C-0.167645846,62.7601494 -0.227941247,64.4226936 0.525826241,65.7873438 C1.27994059,67.1516494 2.72747646,68 4.30038288,68 L81.6996218,68 C83.2731376,68 84.7203421,67.1513281 85.4741784,65.7860156 C86.2279419,64.4218313 86.1676417,62.7596666 85.3169612,61.4523438 Z M43.0000023,12.1098438 L54.4741708,29.75 L43.0000023,29.75 L34.4000869,38.25 L29.2858247,33.1951563 L43.0000023,12.1098438 Z" id="Shape"></path>
            </g>
            <g id="mountain" transform="translate(0.000000, 28.000000)" fill="#EEEEEE" fill-rule="nonzero">
                <path d="M136.705723,99.2315245 L74.7184047,3.19781661 C73.450678,1.23427026 71.2682078,0.0467105717 68.9243124,0.0467105717 C66.5804169,0.0467105717 64.3979468,1.23427026 63.13022,3.19781661 L1.14290212,99.2315245 C-0.219693898,101.342338 -0.316272373,104.025705 0.891078644,106.228266 C2.09898525,108.430272 4.4175834,109.79952 6.93699448,109.79952 L130.91163,109.79952 C133.432017,109.79952 135.750085,108.429753 136.957546,106.226122 C138.164891,104.024313 138.068305,101.341559 136.705723,99.2315245 Z M68.9243124,19.5921425 L87.3031217,48.0635645 L68.9243124,48.0635645 L55.1493528,61.7826656 L46.9575566,53.6240877 L68.9243124,19.5921425 Z" id="Shape"></path>
            </g>
        </g>
        <path d="M283.77,570.522 C283.77,526.122 319.512,490.38 363.912,490.38 C386.112,490.38 402.54,497.262 417.636,511.026 C419.634,512.802 419.634,515.466 417.858,517.242 L400.542,535.224 C398.988,536.778 396.546,536.778 394.992,535.224 C386.778,527.898 375.9,523.902 365.022,523.902 C339.936,523.902 321.51,544.77 321.51,569.634 C321.51,594.276 340.158,614.7 365.244,614.7 C375.678,614.7 387,610.926 394.992,604.044 C396.546,602.712 399.432,602.712 400.764,604.266 L418.08,622.692 C419.634,624.246 419.412,627.132 417.858,628.686 C402.762,643.338 383.67,650.22 363.912,650.22 C319.512,650.22 283.77,614.922 283.77,570.522 Z" id="C" fill="#EEEEEE" fill-rule="nonzero"></path>
        <path d="M710.77,570.522 C710.77,526.122 746.068,490.38 790.468,490.38 C834.868,490.38 870.388,526.122 870.388,570.522 C870.388,614.922 834.868,650.22 790.468,650.22 C746.068,650.22 710.77,614.922 710.77,570.522 Z M746.29,570.522 C746.29,594.72 766.27,614.7 790.468,614.7 C814.888,614.7 834.868,594.72 834.868,570.522 C834.868,546.102 814.888,525.9 790.468,525.9 C766.27,525.9 746.29,546.102 746.29,570.522 Z" id="O" fill="#EEEEEE" fill-rule="nonzero"></path>
        <rect id="Rectangle" fill="#EEEEEE" x="439" y="759" width="265" height="96" rx="8"></rect>
        <g id="Keys" transform="translate(448.000000, 767.000000)" fill="#D8D8D8" stroke="#979797">
            <rect id="Rectangle-Copy-5" x="231.5" y="0.5" width="15" height="15" rx="3"></rect>
            <rect id="Rectangle-Copy-15" x="134.5" y="21.5" width="15" height="15" rx="3"></rect>
            <rect id="Rectangle-Copy-25" x="147.5" y="0.5" width="15" height="15" rx="3"></rect>
            <rect id="Rectangle-Copy-34" x="147.5" y="42.5" width="15" height="15" rx="3"></rect>
            <rect id="Rectangle-Copy-19" x="50.5" y="21.5" width="15" height="15" rx="3"></rect>
            <rect id="Rectangle-Copy-26" x="63.5" y="0.5" width="15" height="15" rx="3"></rect>
            <rect id="Rectangle-Copy-35" x="63.5" y="42.5" width="15" height="15" rx="3"></rect>
            <rect id="Rectangle-Copy-13" x="189.5" y="0.5" width="15" height="15" rx="3"></rect>
            <rect id="Rectangle-Copy-16" x="92.5" y="21.5" width="15" height="15" rx="3"></rect>
            <rect id="Rectangle-Copy-27" x="105.5" y="0.5" width="15" height="15" rx="3"></rect>
            <rect id="Rectangle-Copy-36" x="105.5" y="42.5" width="15" height="15" rx="3"></rect>
            <rect id="Rectangle-Copy-28" x="21.5" y="0.5" width="15" height="15" rx="3"></rect>
            <rect id="Rectangle-Copy-12" x="210.5" y="0.5" width="15" height="15" rx="3"></rect>
            <rect id="Rectangle-Copy-17" x="113.5" y="21.5" width="15" height="15" rx="3"></rect>
            <rect id="Rectangle-Copy-29" x="126.5" y="0.5" width="15" height="15" rx="3"></rect>
            <rect id="Rectangle-Copy-38" x="126.5" y="42.5" width="15" height="15" rx="3"></rect>
            <rect id="Rectangle-Copy-21" x="29.5" y="21.5" width="15" height="15" rx="3"></rect>
            <rect id="Rectangle-Copy-30" x="42.5" y="0.5" width="15" height="15" rx="3"></rect>
            <rect id="Rectangle-Copy-39" x="42.5" y="42.5" width="15" height="15" rx="3"></rect>
            <rect id="Rectangle-Copy-14" x="155.5" y="21.5" width="15" height="15" rx="3"></rect>
            <rect id="Rectangle-Copy-31" x="168.5" y="0.5" width="15" height="15" rx="3"></rect>
            <rect id="Rectangle-Copy-18" x="71.5" y="21.5" width="15" height="15" rx="3"></rect>
            <rect id="Rectangle-Copy-32" x="84.5" y="0.5" width="15" height="15" rx="3"></rect>
            <rect id="Rectangle-Copy-41" x="84.5" y="42.5" width="15" height="15" rx="3"></rect>
            <rect id="Rectangle-Copy-33" x="0.5" y="0.5" width="15" height="15" rx="3"></rect>
            <rect id="Rectangle-Copy-6" x="210.5" y="42.5" width="15" height="15" rx="3"></rect>
            <rect id="Rectangle-Copy-7" x="231.5" y="21.5" width="15" height="15" rx="3"></rect>
            <rect id="Rectangle-Copy-44" x="231.5" y="42.5" width="15" height="15" rx="3"></rect>
            <rect id="Rectangle" x="202.5" y="63.5" width="19" height="15" rx="3"></rect>
            <rect id="Rectangle-Copy-43" x="177.5" y="63.5" width="19" height="15" rx="3"></rect>
            <rect id="Rectangle-Copy-3" x="0.5" y="63.5" width="19" height="15" rx="3"></rect>
            <rect id="Rectangle-Copy-8" x="0.5" y="21.5" width="19" height="15" rx="3"></rect>
            <rect id="Rectangle-Copy-9" x="0.5" y="42.5" width="28" height="15" rx="3"></rect>
            <rect id="Rectangle-Copy-2" x="75.5" y="63.5" width="96" height="15" rx="3"></rect>
            <rect id="Rectangle-Copy" x="227.5" y="63.5" width="19" height="15" rx="3"></rect>
            <rect id="Rectangle-Copy-24" x="169.5" y="42.5" width="34" height="15" rx="3"></rect>
            <rect id="Rectangle-Copy-23" x="189.5" y="21.5" width="36" height="15" rx="3"></rect>
            <rect id="Rectangle-Copy-4" x="25.5" y="63.5" width="19" height="15" rx="3"></rect>
            <rect id="Rectangle-Copy-40" x="50.5" y="63.5" width="19" height="15" rx="3"></rect>
        </g>
    </g>
</svg>